<svg width="35" height="36" viewBox="0 0 35 36" fill="none" xmlns="http://www.w3.org/2000/svg">
<circle cx="17.5" cy="18" r="17.5" fill="#F9F9F9"/>
<path d="M26.7936 22.9944C26.2733 22.0981 25.4999 19.5622 25.4999 16.25C25.4999 14.2609 24.7097 12.3532 23.3032 10.9467C21.8967 9.54018 19.989 8.75 17.9999 8.75C16.0108 8.75 14.1031 9.54018 12.6966 10.9467C11.2901 12.3532 10.4999 14.2609 10.4999 16.25C10.4999 19.5631 9.72551 22.0981 9.2052 22.9944C9.07233 23.2222 9.00189 23.4811 9.00099 23.7449C9.00008 24.0086 9.06874 24.268 9.20005 24.4967C9.33135 24.7255 9.52065 24.9156 9.74886 25.0478C9.97708 25.1801 10.2361 25.2498 10.4999 25.25H14.3258C14.4989 26.0967 14.959 26.8577 15.6285 27.4042C16.298 27.9507 17.1357 28.2492 17.9999 28.2492C18.8641 28.2492 19.7018 27.9507 20.3713 27.4042C21.0407 26.8577 21.5009 26.0967 21.674 25.25H25.4999C25.7636 25.2496 26.0225 25.1798 26.2506 25.0475C26.4787 24.9151 26.6678 24.725 26.799 24.4963C26.9302 24.2676 26.9988 24.0083 26.9979 23.7446C26.9969 23.4809 26.9265 23.2222 26.7936 22.9944ZM17.9999 26.75C17.5347 26.7499 17.081 26.6055 16.7013 26.3369C16.3215 26.0683 16.0343 25.6886 15.8793 25.25H20.1205C19.9655 25.6886 19.6783 26.0683 19.2985 26.3369C18.9188 26.6055 18.4651 26.7499 17.9999 26.75Z" fill="#4285F4"/>
</svg>
