<svg width="24" height="24" viewBox="0 0 24 24" fill="none" xmlns="http://www.w3.org/2000/svg">
<path d="M21.5306 5.46996L18.5306 2.46996C18.461 2.40023 18.3783 2.34491 18.2872 2.30717C18.1962 2.26943 18.0986 2.25 18 2.25C17.9014 2.25 17.8038 2.26943 17.7128 2.30717C17.6217 2.34491 17.539 2.40023 17.4694 2.46996L8.46937 11.47C8.39975 11.5397 8.34454 11.6224 8.3069 11.7135C8.26926 11.8045 8.24992 11.9021 8.25 12.0006V15.0006C8.25 15.1995 8.32902 15.3903 8.46967 15.5309C8.61032 15.6716 8.80109 15.7506 9 15.7506H12C12.0985 15.7507 12.1961 15.7313 12.2871 15.6937C12.3782 15.6561 12.4609 15.6008 12.5306 15.5312L21.5306 6.53122C21.6004 6.46156 21.6557 6.37884 21.6934 6.2878C21.7312 6.19675 21.7506 6.09915 21.7506 6.00059C21.7506 5.90203 21.7312 5.80443 21.6934 5.71338C21.6557 5.62234 21.6004 5.53962 21.5306 5.46996ZM11.6897 14.2506H9.75V12.3109L15.75 6.3109L17.6897 8.25059L11.6897 14.2506ZM18.75 7.19028L16.8103 5.25059L18 4.0609L19.9397 6.00059L18.75 7.19028ZM21 12.0006V19.5006C21 19.8984 20.842 20.2799 20.5607 20.5612C20.2794 20.8426 19.8978 21.0006 19.5 21.0006H4.5C4.10218 21.0006 3.72064 20.8426 3.43934 20.5612C3.15804 20.2799 3 19.8984 3 19.5006V4.50059C3 4.10277 3.15804 3.72123 3.43934 3.43993C3.72064 3.15863 4.10218 3.00059 4.5 3.00059H12C12.1989 3.00059 12.3897 3.07961 12.5303 3.22026C12.671 3.36091 12.75 3.55168 12.75 3.75059C12.75 3.9495 12.671 4.14027 12.5303 4.28092C12.3897 4.42157 12.1989 4.50059 12 4.50059H4.5V19.5006H19.5V12.0006C19.5 11.8017 19.579 11.6109 19.7197 11.4703C19.8603 11.3296 20.0511 11.2506 20.25 11.2506C20.4489 11.2506 20.6397 11.3296 20.7803 11.4703C20.921 11.6109 21 11.8017 21 12.0006Z" fill="#9E9E9E"/>
</svg>
