<svg width="16" height="18" viewBox="0 0 16 18" fill="none" xmlns="http://www.w3.org/2000/svg">
<path d="M14.6667 1.37442H12.6667V0.687209C12.6667 0.50495 12.5964 0.330156 12.4714 0.201279C12.3464 0.0724021 12.1768 0 12 0C11.8232 0 11.6536 0.0724021 11.5286 0.201279C11.4036 0.330156 11.3333 0.50495 11.3333 0.687209V1.37442H4.66667V0.687209C4.66667 0.50495 4.59643 0.330156 4.4714 0.201279C4.34638 0.0724021 4.17681 0 4 0C3.82319 0 3.65362 0.0724021 3.5286 0.201279C3.40357 0.330156 3.33333 0.50495 3.33333 0.687209V1.37442H1.33333C0.979711 1.37442 0.640573 1.51922 0.390524 1.77698C0.140476 2.03473 0 2.38432 0 2.74884V16.493C0 16.8575 0.140476 17.2071 0.390524 17.4649C0.640573 17.7226 0.979711 17.8674 1.33333 17.8674H14.6667C15.0203 17.8674 15.3594 17.7226 15.6095 17.4649C15.8595 17.2071 16 16.8575 16 16.493V2.74884C16 2.38432 15.8595 2.03473 15.6095 1.77698C15.3594 1.51922 15.0203 1.37442 14.6667 1.37442ZM11.4717 10.1071L7.47167 14.2304C7.40975 14.2943 7.33623 14.345 7.25529 14.3795C7.17436 14.4141 7.08761 14.4319 7 14.4319C6.91239 14.4319 6.82564 14.4141 6.74471 14.3795C6.66377 14.345 6.59025 14.2943 6.52833 14.2304L4.52833 12.1688C4.40324 12.0398 4.33296 11.8649 4.33296 11.6826C4.33296 11.5002 4.40324 11.3253 4.52833 11.1964C4.65343 11.0674 4.82309 10.995 5 10.995C5.17691 10.995 5.34657 11.0674 5.47167 11.1964L7 12.7726L10.5283 9.13473C10.5903 9.07088 10.6638 9.02023 10.7447 8.98568C10.8257 8.95112 10.9124 8.93334 11 8.93334C11.0876 8.93334 11.1743 8.95112 11.2553 8.98568C11.3362 9.02023 11.4097 9.07088 11.4717 9.13473C11.5336 9.19858 11.5827 9.27438 11.6163 9.3578C11.6498 9.44122 11.667 9.53063 11.667 9.62093C11.667 9.71122 11.6498 9.80064 11.6163 9.88406C11.5827 9.96748 11.5336 10.0433 11.4717 10.1071ZM1.33333 5.49767V2.74884H3.33333V3.43605C3.33333 3.6183 3.40357 3.7931 3.5286 3.92198C3.65362 4.05085 3.82319 4.12325 4 4.12325C4.17681 4.12325 4.34638 4.05085 4.4714 3.92198C4.59643 3.7931 4.66667 3.6183 4.66667 3.43605V2.74884H11.3333V3.43605C11.3333 3.6183 11.4036 3.7931 11.5286 3.92198C11.6536 4.05085 11.8232 4.12325 12 4.12325C12.1768 4.12325 12.3464 4.05085 12.4714 3.92198C12.5964 3.7931 12.6667 3.6183 12.6667 3.43605V2.74884H14.6667V5.49767H1.33333Z" fill="#EA4335"/>
</svg>
