<svg width="50" height="50" viewBox="0 0 50 50" fill="none" xmlns="http://www.w3.org/2000/svg">
<path d="M46.827 17.7345C46.827 17.756 46.827 17.7755 46.8134 17.797L42.3837 38.0841C42.2473 38.7985 41.8661 39.4429 41.3056 39.9064C40.7452 40.3699 40.0406 40.6234 39.3134 40.6232H10.6864C9.95949 40.6229 9.2554 40.3692 8.69536 39.9058C8.13532 39.4424 7.75436 38.7982 7.61806 38.0841L3.18837 17.797C3.18837 17.7755 3.1786 17.756 3.1747 17.7345C3.05346 17.0629 3.15546 16.37 3.46511 15.7617C3.77476 15.1535 4.27503 14.6633 4.88949 14.3662C5.50394 14.069 6.19878 13.9812 6.86784 14.1161C7.5369 14.2511 8.14338 14.6014 8.59462 15.1134L15.1708 22.2013L22.163 6.51969C22.1633 6.51318 22.1633 6.50667 22.163 6.50016C22.413 5.95787 22.8132 5.49857 23.3161 5.17663C23.8191 4.85469 24.4037 4.68359 25.0009 4.68359C25.598 4.68359 26.1827 4.85469 26.6856 5.17663C27.1886 5.49857 27.5887 5.95787 27.8388 6.50016C27.8384 6.50667 27.8384 6.51318 27.8388 6.51969L34.8309 22.2013L41.4071 15.1134C41.8593 14.6052 42.465 14.2583 43.1322 14.1256C43.7994 13.9928 44.4918 14.0815 45.1041 14.378C45.7163 14.6745 46.2151 15.1627 46.5247 15.7685C46.8343 16.3743 46.9377 17.0646 46.8192 17.7345H46.827Z" fill="#FFC727"/>
</svg>
