<svg width="24" height="24" viewBox="0 0 24 24" fill="none" xmlns="http://www.w3.org/2000/svg">
<path d="M20.986 4.41617C20.9638 4.05047 20.8085 3.70556 20.5494 3.44649C20.2904 3.18743 19.9454 3.03214 19.5797 3.00992C18.4004 2.9396 15.3863 3.04742 12.8851 5.54773L12.4397 5.99867H6.9713C6.77356 5.99755 6.57758 6.03577 6.39474 6.11109C6.21191 6.18641 6.04588 6.29734 5.9063 6.43742L2.69068 9.65492C2.49347 9.85199 2.35509 10.1001 2.29107 10.3715C2.22704 10.6428 2.23991 10.9266 2.32821 11.1911C2.41652 11.4555 2.57678 11.6901 2.79101 11.8685C3.00523 12.0469 3.26494 12.1621 3.54099 12.2012L7.14755 12.7046L11.2922 16.8493L11.7957 20.4577C11.8344 20.7338 11.9496 20.9935 12.1281 21.2076C12.3067 21.4216 12.5416 21.5814 12.8063 21.669C12.9605 21.7205 13.1219 21.7467 13.2844 21.7468C13.4812 21.7472 13.6761 21.7086 13.858 21.6333C14.0398 21.558 14.2049 21.4474 14.3438 21.308L17.5613 18.0924C17.7014 17.9528 17.8123 17.7868 17.8876 17.604C17.963 17.4211 18.0012 17.2252 18.0001 17.0274V11.559L18.4472 11.1118C20.9485 8.61054 21.0563 5.59648 20.986 4.41617ZM6.9713 7.49867H10.9397L7.2338 11.2037L3.75005 10.718L6.9713 7.49867ZM13.9472 6.61273C14.6679 5.88761 15.535 5.32461 16.4907 4.96134C17.4463 4.59807 18.4684 4.44289 19.4888 4.50617C19.5545 5.52709 19.401 6.55025 19.0384 7.50688C18.6759 8.46352 18.1128 9.33148 17.3869 10.0524L12.0001 15.4374L8.5613 11.9987L13.9472 6.61273ZM16.5001 17.0274L13.2816 20.2487L12.7951 16.764L16.5001 13.059V17.0274ZM9.54755 17.918C9.12568 18.8424 7.71474 20.9987 3.75005 20.9987C3.55114 20.9987 3.36037 20.9197 3.21972 20.779C3.07907 20.6383 3.00005 20.4476 3.00005 20.2487C3.00005 16.284 5.1563 14.873 6.08068 14.4502C6.17031 14.4094 6.26711 14.3865 6.36555 14.3831C6.464 14.3796 6.56216 14.3956 6.65444 14.43C6.74672 14.4645 6.8313 14.5168 6.90337 14.584C6.97543 14.6512 7.03355 14.7319 7.07443 14.8215C7.1153 14.9111 7.13812 15.0079 7.14159 15.1064C7.14505 15.2048 7.12909 15.303 7.09461 15.3952C7.06014 15.4875 7.00783 15.5721 6.94067 15.6442C6.8735 15.7162 6.79281 15.7744 6.70318 15.8152C6.10037 16.0899 4.77005 16.974 4.53568 19.463C7.02474 19.2287 7.91068 17.8984 8.18349 17.2955C8.22436 17.2059 8.28249 17.1252 8.35455 17.0581C8.42661 16.9909 8.5112 16.9386 8.60348 16.9041C8.69576 16.8696 8.79392 16.8537 8.89237 16.8571C8.99081 16.8606 9.08761 16.8834 9.17724 16.9243C9.26687 16.9652 9.34757 17.0233 9.41473 17.0954C9.48189 17.1674 9.5342 17.252 9.56868 17.3443C9.60315 17.4366 9.61911 17.5347 9.61565 17.6332C9.61219 17.7316 9.58936 17.8284 9.54849 17.918H9.54755Z" fill="#9E9E9E"/>
</svg>
