<svg width="239" height="80" viewBox="0 0 239 80" fill="none" xmlns="http://www.w3.org/2000/svg">
<circle cx="199.01" cy="40" r="40" fill="white"/>
<line x1="134.01" y1="16" x2="171.01" y2="16" stroke="#4285F4" stroke-width="8" stroke-linecap="round"/>
<line x1="105" y1="15.5" x2="122.02" y2="15.5" stroke="#4285F4" stroke-width="8" stroke-linecap="round"/>
<line x1="143.01" y1="24" x2="176.01" y2="24" stroke="white" stroke-width="8" stroke-linecap="round"/>
<line x1="127.01" y1="32" x2="161.01" y2="32" stroke="#4285F4" stroke-width="8" stroke-linecap="round"/>
<line x1="132.01" y1="40" x2="185.01" y2="40" stroke="white" stroke-width="8" stroke-linecap="round"/>
<line x1="147.01" y1="56" x2="207.01" y2="56" stroke="white" stroke-width="8" stroke-linecap="round"/>
<line x1="110.01" y1="56" x2="126.01" y2="56" stroke="white" stroke-width="8" stroke-linecap="round"/>
<line x1="106.01" y1="40" x2="114.01" y2="40" stroke="white" stroke-width="8" stroke-linecap="round"/>
<line x1="138.01" y1="48" x2="170.023" y2="48" stroke="#4285F4" stroke-width="8" stroke-linecap="round"/>
<path d="M212.337 39.5722H216.02C216.02 30.125 208.887 23 199.427 23V26.6831C206.907 26.6831 212.337 32.1028 212.337 39.5722Z" fill="black"/>
<path d="M199.427 33.7103C203.3 33.7103 204.952 35.3622 204.952 39.235H208.636C208.636 33.2959 205.367 30.0272 199.427 30.0272V33.7103ZM205.73 43.7339C205.376 43.4123 204.911 43.2407 204.433 43.2555C203.955 43.2703 203.501 43.4702 203.168 43.8131L198.761 48.3452C197.7 48.1426 195.567 47.4778 193.372 45.2882C191.177 43.0912 190.512 40.9531 190.315 39.8998L194.843 35.4911C195.187 35.158 195.387 34.7044 195.402 34.2263C195.417 33.7482 195.245 33.2831 194.923 32.9295L188.118 25.4472C187.795 25.0925 187.348 24.8773 186.869 24.8473C186.391 24.8174 185.92 24.9751 185.556 25.287L181.559 28.7141C181.241 29.0337 181.051 29.459 181.025 29.9093C180.998 30.3697 180.471 41.2754 188.928 49.7355C196.306 57.111 205.547 57.6506 208.093 57.6506C208.465 57.6506 208.693 57.6395 208.754 57.6358C209.204 57.6106 209.629 57.4197 209.947 57.0999L213.373 53.1019C213.685 52.7383 213.843 52.2673 213.813 51.789C213.784 51.3107 213.569 50.8627 213.214 50.5403L205.73 43.7339Z" fill="black"/>
<path d="M0.230114 44L3.12784 26.5455H15.0426L14.4631 29.9716H6.76705L6.1875 33.5511H13.125L12.5455 36.9858H5.60795L4.44886 44H0.230114ZM17.7145 44.2216C16.8849 44.2216 16.169 44.0824 15.5668 43.804C14.9702 43.5199 14.5327 43.0909 14.2543 42.517C13.9815 41.9432 13.9162 41.2273 14.0582 40.3693C14.1832 39.642 14.4134 39.0312 14.7486 38.5369C15.0895 38.0369 15.5071 37.6307 16.0014 37.3182C16.5014 37.0057 17.0582 36.767 17.6719 36.6023C18.2855 36.4375 18.9276 36.3267 19.598 36.2699C20.348 36.2017 20.956 36.1278 21.4219 36.0483C21.8935 35.9687 22.2457 35.858 22.4787 35.7159C22.7116 35.5682 22.8537 35.3636 22.9048 35.1023V35.0597C22.973 34.6222 22.8793 34.2841 22.6236 34.0455C22.3679 33.8068 21.9844 33.6875 21.473 33.6875C20.9276 33.6875 20.4616 33.8068 20.0753 34.0455C19.6889 34.2841 19.419 34.6136 19.2656 35.0341L15.4474 34.8977C15.6861 34.1023 16.0952 33.392 16.6747 32.767C17.2543 32.1364 17.9901 31.642 18.8821 31.2841C19.7798 30.9205 20.8168 30.7386 21.9929 30.7386C22.8224 30.7386 23.5724 30.8381 24.2429 31.0369C24.9134 31.2301 25.4787 31.5142 25.9389 31.8892C26.4048 32.2585 26.7372 32.7131 26.9361 33.2528C27.1349 33.7926 27.1776 34.4091 27.0639 35.1023L25.5724 44H21.652L21.9588 42.1761H21.8565C21.5497 42.6193 21.1889 42.9943 20.7741 43.3011C20.3651 43.608 19.9048 43.8381 19.3935 43.9915C18.8821 44.1449 18.3224 44.2216 17.7145 44.2216ZM19.4702 41.4943C19.9077 41.4943 20.3224 41.4034 20.7145 41.2216C21.1065 41.0398 21.4361 40.7898 21.7031 40.4716C21.9759 40.1477 22.1491 39.7727 22.223 39.3466L22.419 38.1023C22.2997 38.1648 22.1491 38.2216 21.9673 38.2727C21.7855 38.3239 21.5923 38.3722 21.3878 38.4176C21.1832 38.4574 20.973 38.4972 20.7571 38.5369C20.5469 38.571 20.3452 38.6023 20.152 38.6307C19.7429 38.6932 19.3878 38.7898 19.0866 38.9205C18.7855 39.0511 18.544 39.2216 18.3622 39.4318C18.1861 39.6364 18.0781 39.8807 18.0384 40.1648C17.9702 40.5909 18.0696 40.9205 18.3366 41.1534C18.6037 41.3807 18.9815 41.4943 19.4702 41.4943ZM41.0327 34.9062L37.2741 35.0085C37.2798 34.7301 37.2173 34.4858 37.0866 34.2756C36.956 34.0597 36.7713 33.892 36.5327 33.7727C36.294 33.6534 36.0099 33.5938 35.6804 33.5938C35.1463 33.5938 34.6662 33.7131 34.2401 33.9517C33.8196 34.1903 33.5838 34.5 33.5327 34.8807C33.4929 35.0852 33.5497 35.2642 33.7031 35.4176C33.8565 35.5653 34.1974 35.696 34.7259 35.8097L37.1804 36.2869C38.4418 36.5369 39.3565 36.9716 39.9247 37.5909C40.4986 38.2045 40.7031 39.017 40.5384 40.0284C40.3906 40.892 40.0099 41.6392 39.3963 42.2699C38.7884 42.9006 38.0128 43.3892 37.0696 43.7358C36.1321 44.0767 35.0952 44.2472 33.9588 44.2472C32.0384 44.2472 30.5895 43.8608 29.6122 43.0881C28.6406 42.3097 28.1861 41.2784 28.2486 39.9943L32.3054 39.892C32.3224 40.375 32.4844 40.7386 32.7912 40.983C33.1037 41.2216 33.527 41.3466 34.0611 41.358C34.6463 41.3693 35.152 41.2472 35.5781 40.9915C36.0043 40.7358 36.2429 40.4205 36.294 40.0455C36.3281 39.8011 36.2457 39.6108 36.0469 39.4744C35.8537 39.3381 35.4929 39.2159 34.9645 39.108L32.7486 38.6733C31.4759 38.429 30.5554 37.9687 29.9872 37.2926C29.4247 36.6108 29.2315 35.7415 29.4077 34.6847C29.5554 33.8437 29.902 33.1307 30.4474 32.5455C30.9986 31.9545 31.7173 31.5057 32.6037 31.1989C33.4957 30.892 34.5128 30.7386 35.6548 30.7386C37.4844 30.7386 38.8651 31.1108 39.7969 31.8551C40.7344 32.5937 41.1463 33.6108 41.0327 34.9062ZM51.4964 30.9091L50.9766 33.9773H42.718L43.2379 30.9091H51.4964ZM45.4794 27.7727H49.647L47.6357 39.8835C47.5959 40.1392 47.6016 40.3466 47.6527 40.5057C47.7095 40.6591 47.8118 40.7699 47.9595 40.8381C48.1129 40.9006 48.3004 40.9318 48.522 40.9318C48.6754 40.9318 48.8459 40.9148 49.0334 40.8807C49.2209 40.8466 49.3629 40.821 49.4595 40.804L49.5959 43.8125C49.3743 43.875 49.076 43.946 48.701 44.0256C48.3317 44.1108 47.8999 44.1648 47.4055 44.1875C46.4055 44.2273 45.5788 44.1108 44.9254 43.8381C44.2777 43.5597 43.8203 43.1278 43.5533 42.5426C43.2919 41.9574 43.2408 41.2244 43.3999 40.3438L45.4794 27.7727ZM56.0646 44.1875C55.0987 44.1875 54.2607 43.9375 53.5504 43.4375C52.8402 42.9375 52.3317 42.1875 52.0249 41.1875C51.7237 40.1875 51.6953 38.946 51.9396 37.4631C52.1953 35.9233 52.6499 34.6562 53.3033 33.6619C53.9567 32.6676 54.718 31.9318 55.5874 31.4545C56.4624 30.9773 57.3544 30.7386 58.2635 30.7386C58.951 30.7386 59.5192 30.858 59.968 31.0966C60.4226 31.3295 60.7777 31.6307 61.0334 32C61.2891 32.3693 61.4652 32.7528 61.5618 33.1506H61.6555L62.755 26.5455H66.9226L64.0249 44H59.8999L60.2493 41.8778H60.1214C59.8771 42.2812 59.5646 42.6591 59.1839 43.0114C58.8033 43.3636 58.3516 43.6477 57.8288 43.8636C57.3118 44.0795 56.7237 44.1875 56.0646 44.1875ZM58.0334 40.9403C58.5391 40.9403 58.9964 40.7983 59.4055 40.5142C59.8146 40.2244 60.1584 39.8182 60.4368 39.2955C60.7209 38.7727 60.9197 38.1591 61.0334 37.4545C61.1527 36.7386 61.1584 36.1222 61.0504 35.6051C60.9425 35.0881 60.7294 34.6903 60.4112 34.4119C60.0987 34.1335 59.6868 33.9943 59.1754 33.9943C58.6641 33.9943 58.2067 34.1364 57.8033 34.4205C57.3999 34.7045 57.0646 35.1051 56.7976 35.6222C56.5305 36.1392 56.3374 36.75 56.218 37.4545C56.1044 38.1591 56.093 38.7727 56.1839 39.2955C56.2805 39.8182 56.4822 40.2244 56.7891 40.5142C57.1016 40.7983 57.5163 40.9403 58.0334 40.9403ZM66.6754 44L68.8572 30.9091H73.0249L70.843 44H66.6754ZM71.2351 29.375C70.6442 29.375 70.1641 29.179 69.7947 28.7869C69.4254 28.3949 69.2805 27.9261 69.3601 27.3807C69.4396 26.8295 69.718 26.3608 70.1953 25.9744C70.6726 25.5881 71.2038 25.3949 71.7891 25.3949C72.38 25.3949 72.8544 25.5881 73.2124 25.9744C73.576 26.3608 73.718 26.8295 73.6385 27.3807C73.5703 27.9261 73.2976 28.3949 72.8203 28.7869C72.3487 29.179 71.8203 29.375 71.2351 29.375ZM77.152 44.2216C76.3224 44.2216 75.6065 44.0824 75.0043 43.804C74.4077 43.5199 73.9702 43.0909 73.6918 42.517C73.419 41.9432 73.3537 41.2273 73.4957 40.3693C73.6207 39.642 73.8509 39.0312 74.1861 38.5369C74.527 38.0369 74.9446 37.6307 75.4389 37.3182C75.9389 37.0057 76.4957 36.767 77.1094 36.6023C77.723 36.4375 78.3651 36.3267 79.0355 36.2699C79.7855 36.2017 80.3935 36.1278 80.8594 36.0483C81.331 35.9687 81.6832 35.858 81.9162 35.7159C82.1491 35.5682 82.2912 35.3636 82.3423 35.1023V35.0597C82.4105 34.6222 82.3168 34.2841 82.0611 34.0455C81.8054 33.8068 81.4219 33.6875 80.9105 33.6875C80.3651 33.6875 79.8991 33.8068 79.5128 34.0455C79.1264 34.2841 78.8565 34.6136 78.7031 35.0341L74.8849 34.8977C75.1236 34.1023 75.5327 33.392 76.1122 32.767C76.6918 32.1364 77.4276 31.642 78.3196 31.2841C79.2173 30.9205 80.2543 30.7386 81.4304 30.7386C82.2599 30.7386 83.0099 30.8381 83.6804 31.0369C84.3509 31.2301 84.9162 31.5142 85.3764 31.8892C85.8423 32.2585 86.1747 32.7131 86.3736 33.2528C86.5724 33.7926 86.6151 34.4091 86.5014 35.1023L85.0099 44H81.0895L81.3963 42.1761H81.294C80.9872 42.6193 80.6264 42.9943 80.2116 43.3011C79.8026 43.608 79.3423 43.8381 78.831 43.9915C78.3196 44.1449 77.7599 44.2216 77.152 44.2216ZM78.9077 41.4943C79.3452 41.4943 79.7599 41.4034 80.152 41.2216C80.544 41.0398 80.8736 40.7898 81.1406 40.4716C81.4134 40.1477 81.5866 39.7727 81.6605 39.3466L81.8565 38.1023C81.7372 38.1648 81.5866 38.2216 81.4048 38.2727C81.223 38.3239 81.0298 38.3722 80.8253 38.4176C80.6207 38.4574 80.4105 38.4972 80.1946 38.5369C79.9844 38.571 79.7827 38.6023 79.5895 38.6307C79.1804 38.6932 78.8253 38.7898 78.5241 38.9205C78.223 39.0511 77.9815 39.2216 77.7997 39.4318C77.6236 39.6364 77.5156 39.8807 77.4759 40.1648C77.4077 40.5909 77.5071 40.9205 77.7741 41.1534C78.0412 41.3807 78.419 41.4943 78.9077 41.4943ZM94.6236 26.5455L91.7259 44H87.5582L90.456 26.5455H94.6236Z" fill="white"/>
</svg>
