<svg width="238" height="80" viewBox="0 0 238 80" fill="none" xmlns="http://www.w3.org/2000/svg">
<circle cx="198" cy="40" r="40" fill="#4285F4"/>
<line x1="133" y1="16" x2="170" y2="16" stroke="white" stroke-width="8" stroke-linecap="round"/>
<line x1="103.99" y1="15.5" x2="121.01" y2="15.5" stroke="white" stroke-width="8" stroke-linecap="round"/>
<line x1="142" y1="24" x2="175" y2="24" stroke="#4285F4" stroke-width="8" stroke-linecap="round"/>
<line x1="126" y1="32" x2="160" y2="32" stroke="white" stroke-width="8" stroke-linecap="round"/>
<line x1="131" y1="40" x2="184" y2="40" stroke="#4285F4" stroke-width="8" stroke-linecap="round"/>
<line x1="146" y1="56" x2="206" y2="56" stroke="#4285F4" stroke-width="8" stroke-linecap="round"/>
<line x1="109" y1="56" x2="125" y2="56" stroke="#4285F4" stroke-width="8" stroke-linecap="round"/>
<line x1="105" y1="40" x2="113" y2="40" stroke="#4285F4" stroke-width="8" stroke-linecap="round"/>
<line x1="137" y1="48" x2="169.012" y2="48" stroke="white" stroke-width="8" stroke-linecap="round"/>
<path d="M211.327 39.5722H215.01C215.01 30.125 207.877 23 198.417 23V26.6831C205.897 26.6831 211.327 32.1028 211.327 39.5722Z" fill="white"/>
<path d="M198.417 33.7103C202.29 33.7103 203.942 35.3622 203.942 39.235H207.626C207.626 33.2959 204.357 30.0272 198.417 30.0272V33.7103ZM204.72 43.7339C204.366 43.4123 203.901 43.2407 203.423 43.2555C202.945 43.2703 202.491 43.4702 202.158 43.8131L197.751 48.3452C196.69 48.1426 194.557 47.4778 192.362 45.2882C190.167 43.0912 189.502 40.9531 189.305 39.8998L193.833 35.4911C194.177 35.158 194.377 34.7044 194.392 34.2263C194.407 33.7482 194.235 33.2831 193.913 32.9295L187.108 25.4472C186.785 25.0925 186.338 24.8773 185.859 24.8473C185.381 24.8174 184.91 24.9751 184.546 25.287L180.549 28.7141C180.231 29.0337 180.041 29.459 180.015 29.9093C179.988 30.3697 179.461 41.2754 187.918 49.7355C195.296 57.111 204.537 57.6506 207.082 57.6506C207.455 57.6506 207.683 57.6395 207.744 57.6358C208.194 57.6106 208.619 57.4197 208.937 57.0999L212.363 53.1019C212.675 52.7383 212.833 52.2673 212.803 51.789C212.774 51.3107 212.559 50.8627 212.204 50.5403L204.72 43.7339Z" fill="white"/>
<path d="M0.230114 43L3.12784 25.5455H15.0426L14.4631 28.9716H6.76705L6.1875 32.5511H13.125L12.5455 35.9858H5.60795L4.44886 43H0.230114ZM17.7145 43.2216C16.8849 43.2216 16.169 43.0824 15.5668 42.804C14.9702 42.5199 14.5327 42.0909 14.2543 41.517C13.9815 40.9432 13.9162 40.2273 14.0582 39.3693C14.1832 38.642 14.4134 38.0312 14.7486 37.5369C15.0895 37.0369 15.5071 36.6307 16.0014 36.3182C16.5014 36.0057 17.0582 35.767 17.6719 35.6023C18.2855 35.4375 18.9276 35.3267 19.598 35.2699C20.348 35.2017 20.956 35.1278 21.4219 35.0483C21.8935 34.9687 22.2457 34.858 22.4787 34.7159C22.7116 34.5682 22.8537 34.3636 22.9048 34.1023V34.0597C22.973 33.6222 22.8793 33.2841 22.6236 33.0455C22.3679 32.8068 21.9844 32.6875 21.473 32.6875C20.9276 32.6875 20.4616 32.8068 20.0753 33.0455C19.6889 33.2841 19.419 33.6136 19.2656 34.0341L15.4474 33.8977C15.6861 33.1023 16.0952 32.392 16.6747 31.767C17.2543 31.1364 17.9901 30.642 18.8821 30.2841C19.7798 29.9205 20.8168 29.7386 21.9929 29.7386C22.8224 29.7386 23.5724 29.8381 24.2429 30.0369C24.9134 30.2301 25.4787 30.5142 25.9389 30.8892C26.4048 31.2585 26.7372 31.7131 26.9361 32.2528C27.1349 32.7926 27.1776 33.4091 27.0639 34.1023L25.5724 43H21.652L21.9588 41.1761H21.8565C21.5497 41.6193 21.1889 41.9943 20.7741 42.3011C20.3651 42.608 19.9048 42.8381 19.3935 42.9915C18.8821 43.1449 18.3224 43.2216 17.7145 43.2216ZM19.4702 40.4943C19.9077 40.4943 20.3224 40.4034 20.7145 40.2216C21.1065 40.0398 21.4361 39.7898 21.7031 39.4716C21.9759 39.1477 22.1491 38.7727 22.223 38.3466L22.419 37.1023C22.2997 37.1648 22.1491 37.2216 21.9673 37.2727C21.7855 37.3239 21.5923 37.3722 21.3878 37.4176C21.1832 37.4574 20.973 37.4972 20.7571 37.5369C20.5469 37.571 20.3452 37.6023 20.152 37.6307C19.7429 37.6932 19.3878 37.7898 19.0866 37.9205C18.7855 38.0511 18.544 38.2216 18.3622 38.4318C18.1861 38.6364 18.0781 38.8807 18.0384 39.1648C17.9702 39.5909 18.0696 39.9205 18.3366 40.1534C18.6037 40.3807 18.9815 40.4943 19.4702 40.4943ZM41.0327 33.9062L37.2741 34.0085C37.2798 33.7301 37.2173 33.4858 37.0866 33.2756C36.956 33.0597 36.7713 32.892 36.5327 32.7727C36.294 32.6534 36.0099 32.5938 35.6804 32.5938C35.1463 32.5938 34.6662 32.7131 34.2401 32.9517C33.8196 33.1903 33.5838 33.5 33.5327 33.8807C33.4929 34.0852 33.5497 34.2642 33.7031 34.4176C33.8565 34.5653 34.1974 34.696 34.7259 34.8097L37.1804 35.2869C38.4418 35.5369 39.3565 35.9716 39.9247 36.5909C40.4986 37.2045 40.7031 38.017 40.5384 39.0284C40.3906 39.892 40.0099 40.6392 39.3963 41.2699C38.7884 41.9006 38.0128 42.3892 37.0696 42.7358C36.1321 43.0767 35.0952 43.2472 33.9588 43.2472C32.0384 43.2472 30.5895 42.8608 29.6122 42.0881C28.6406 41.3097 28.1861 40.2784 28.2486 38.9943L32.3054 38.892C32.3224 39.375 32.4844 39.7386 32.7912 39.983C33.1037 40.2216 33.527 40.3466 34.0611 40.358C34.6463 40.3693 35.152 40.2472 35.5781 39.9915C36.0043 39.7358 36.2429 39.4205 36.294 39.0455C36.3281 38.8011 36.2457 38.6108 36.0469 38.4744C35.8537 38.3381 35.4929 38.2159 34.9645 38.108L32.7486 37.6733C31.4759 37.429 30.5554 36.9687 29.9872 36.2926C29.4247 35.6108 29.2315 34.7415 29.4077 33.6847C29.5554 32.8437 29.902 32.1307 30.4474 31.5455C30.9986 30.9545 31.7173 30.5057 32.6037 30.1989C33.4957 29.892 34.5128 29.7386 35.6548 29.7386C37.4844 29.7386 38.8651 30.1108 39.7969 30.8551C40.7344 31.5937 41.1463 32.6108 41.0327 33.9062ZM51.4964 29.9091L50.9766 32.9773H42.718L43.2379 29.9091H51.4964ZM45.4794 26.7727H49.647L47.6357 38.8835C47.5959 39.1392 47.6016 39.3466 47.6527 39.5057C47.7095 39.6591 47.8118 39.7699 47.9595 39.8381C48.1129 39.9006 48.3004 39.9318 48.522 39.9318C48.6754 39.9318 48.8459 39.9148 49.0334 39.8807C49.2209 39.8466 49.3629 39.821 49.4595 39.804L49.5959 42.8125C49.3743 42.875 49.076 42.946 48.701 43.0256C48.3317 43.1108 47.8999 43.1648 47.4055 43.1875C46.4055 43.2273 45.5788 43.1108 44.9254 42.8381C44.2777 42.5597 43.8203 42.1278 43.5533 41.5426C43.2919 40.9574 43.2408 40.2244 43.3999 39.3438L45.4794 26.7727ZM56.0646 43.1875C55.0987 43.1875 54.2607 42.9375 53.5504 42.4375C52.8402 41.9375 52.3317 41.1875 52.0249 40.1875C51.7237 39.1875 51.6953 37.946 51.9396 36.4631C52.1953 34.9233 52.6499 33.6562 53.3033 32.6619C53.9567 31.6676 54.718 30.9318 55.5874 30.4545C56.4624 29.9773 57.3544 29.7386 58.2635 29.7386C58.951 29.7386 59.5192 29.858 59.968 30.0966C60.4226 30.3295 60.7777 30.6307 61.0334 31C61.2891 31.3693 61.4652 31.7528 61.5618 32.1506H61.6555L62.755 25.5455H66.9226L64.0249 43H59.8999L60.2493 40.8778H60.1214C59.8771 41.2812 59.5646 41.6591 59.1839 42.0114C58.8033 42.3636 58.3516 42.6477 57.8288 42.8636C57.3118 43.0795 56.7237 43.1875 56.0646 43.1875ZM58.0334 39.9403C58.5391 39.9403 58.9964 39.7983 59.4055 39.5142C59.8146 39.2244 60.1584 38.8182 60.4368 38.2955C60.7209 37.7727 60.9197 37.1591 61.0334 36.4545C61.1527 35.7386 61.1584 35.1222 61.0504 34.6051C60.9425 34.0881 60.7294 33.6903 60.4112 33.4119C60.0987 33.1335 59.6868 32.9943 59.1754 32.9943C58.6641 32.9943 58.2067 33.1364 57.8033 33.4205C57.3999 33.7045 57.0646 34.1051 56.7976 34.6222C56.5305 35.1392 56.3374 35.75 56.218 36.4545C56.1044 37.1591 56.093 37.7727 56.1839 38.2955C56.2805 38.8182 56.4822 39.2244 56.7891 39.5142C57.1016 39.7983 57.5163 39.9403 58.0334 39.9403ZM66.6754 43L68.8572 29.9091H73.0249L70.843 43H66.6754ZM71.2351 28.375C70.6442 28.375 70.1641 28.179 69.7947 27.7869C69.4254 27.3949 69.2805 26.9261 69.3601 26.3807C69.4396 25.8295 69.718 25.3608 70.1953 24.9744C70.6726 24.5881 71.2038 24.3949 71.7891 24.3949C72.38 24.3949 72.8544 24.5881 73.2124 24.9744C73.576 25.3608 73.718 25.8295 73.6385 26.3807C73.5703 26.9261 73.2976 27.3949 72.8203 27.7869C72.3487 28.179 71.8203 28.375 71.2351 28.375ZM77.152 43.2216C76.3224 43.2216 75.6065 43.0824 75.0043 42.804C74.4077 42.5199 73.9702 42.0909 73.6918 41.517C73.419 40.9432 73.3537 40.2273 73.4957 39.3693C73.6207 38.642 73.8509 38.0312 74.1861 37.5369C74.527 37.0369 74.9446 36.6307 75.4389 36.3182C75.9389 36.0057 76.4957 35.767 77.1094 35.6023C77.723 35.4375 78.3651 35.3267 79.0355 35.2699C79.7855 35.2017 80.3935 35.1278 80.8594 35.0483C81.331 34.9687 81.6832 34.858 81.9162 34.7159C82.1491 34.5682 82.2912 34.3636 82.3423 34.1023V34.0597C82.4105 33.6222 82.3168 33.2841 82.0611 33.0455C81.8054 32.8068 81.4219 32.6875 80.9105 32.6875C80.3651 32.6875 79.8991 32.8068 79.5128 33.0455C79.1264 33.2841 78.8565 33.6136 78.7031 34.0341L74.8849 33.8977C75.1236 33.1023 75.5327 32.392 76.1122 31.767C76.6918 31.1364 77.4276 30.642 78.3196 30.2841C79.2173 29.9205 80.2543 29.7386 81.4304 29.7386C82.2599 29.7386 83.0099 29.8381 83.6804 30.0369C84.3509 30.2301 84.9162 30.5142 85.3764 30.8892C85.8423 31.2585 86.1747 31.7131 86.3736 32.2528C86.5724 32.7926 86.6151 33.4091 86.5014 34.1023L85.0099 43H81.0895L81.3963 41.1761H81.294C80.9872 41.6193 80.6264 41.9943 80.2116 42.3011C79.8026 42.608 79.3423 42.8381 78.831 42.9915C78.3196 43.1449 77.7599 43.2216 77.152 43.2216ZM78.9077 40.4943C79.3452 40.4943 79.7599 40.4034 80.152 40.2216C80.544 40.0398 80.8736 39.7898 81.1406 39.4716C81.4134 39.1477 81.5866 38.7727 81.6605 38.3466L81.8565 37.1023C81.7372 37.1648 81.5866 37.2216 81.4048 37.2727C81.223 37.3239 81.0298 37.3722 80.8253 37.4176C80.6207 37.4574 80.4105 37.4972 80.1946 37.5369C79.9844 37.571 79.7827 37.6023 79.5895 37.6307C79.1804 37.6932 78.8253 37.7898 78.5241 37.9205C78.223 38.0511 77.9815 38.2216 77.7997 38.4318C77.6236 38.6364 77.5156 38.8807 77.4759 39.1648C77.4077 39.5909 77.5071 39.9205 77.7741 40.1534C78.0412 40.3807 78.419 40.4943 78.9077 40.4943ZM94.6236 25.5455L91.7259 43H87.5582L90.456 25.5455H94.6236Z" fill="#4285F4"/>
</svg>
