<svg width="20" height="20" viewBox="0 0 20 20" fill="none" xmlns="http://www.w3.org/2000/svg">
<rect x="0.5" y="0.5" width="19" height="19" rx="9.5" stroke="#9E9E9E"/>
<path d="M11.25 13.9762C11.25 14.1909 11.1767 14.4007 11.0393 14.5791C10.902 14.7575 10.7068 14.8966 10.4784 14.9788C10.2499 15.0609 9.99861 15.0824 9.75614 15.0405C9.51366 14.9986 9.29093 14.8953 9.11612 14.7435C8.9413 14.5918 8.82225 14.3984 8.77402 14.1879C8.72579 13.9774 8.75054 13.7593 8.84515 13.561C8.93976 13.3627 9.09998 13.1932 9.30554 13.074C9.5111 12.9548 9.75277 12.8911 10 12.8911C10.3315 12.8911 10.6495 13.0054 10.8839 13.2089C11.1183 13.4124 11.25 13.6884 11.25 13.9762ZM10 11.2634C10.1658 11.2634 10.3247 11.2063 10.4419 11.1045C10.5592 11.0028 10.625 10.8648 10.625 10.7209V3.66756C10.625 3.52367 10.5592 3.38566 10.4419 3.28391C10.3247 3.18216 10.1658 3.125 10 3.125C9.83424 3.125 9.67527 3.18216 9.55806 3.28391C9.44085 3.38566 9.375 3.52367 9.375 3.66756V10.7209C9.375 10.8648 9.44085 11.0028 9.55806 11.1045C9.67527 11.2063 9.83424 11.2634 10 11.2634Z" fill="#9E9E9E"/>
</svg>
