<svg width="101" height="101" viewBox="0 0 101 101" fill="none" xmlns="http://www.w3.org/2000/svg">
<path d="M47.3437 85.2188C47.3437 86.0558 47.0112 86.8587 46.4193 87.4506C45.8274 88.0425 45.0246 88.375 44.1875 88.375H18.9375C18.1004 88.375 17.2976 88.0425 16.7057 87.4506C16.1138 86.8587 15.7812 86.0558 15.7812 85.2188V15.7812C15.7812 14.9442 16.1138 14.1414 16.7057 13.5494C17.2976 12.9575 18.1004 12.625 18.9375 12.625H44.1875C45.0246 12.625 45.8274 12.9575 46.4193 13.5494C47.0112 14.1414 47.3437 14.9442 47.3437 15.7812C47.3437 16.6183 47.0112 17.4211 46.4193 18.0131C45.8274 18.605 45.0246 18.9375 44.1875 18.9375H22.0937V82.0625H44.1875C45.0246 82.0625 45.8274 82.395 46.4193 82.9869C47.0112 83.5788 47.3437 84.3817 47.3437 85.2188ZM90.608 48.267L74.8267 32.4857C74.3853 32.0438 73.8227 31.7428 73.2101 31.6208C72.5975 31.4988 71.9625 31.5613 71.3855 31.8004C70.8085 32.0395 70.3153 32.4444 69.9686 32.9639C69.6218 33.4834 69.4369 34.0941 69.4374 34.7188V47.3438H44.1875C43.3504 47.3438 42.5476 47.6763 41.9557 48.2682C41.3638 48.8601 41.0312 49.6629 41.0312 50.5C41.0312 51.3371 41.3638 52.1399 41.9557 52.7318C42.5476 53.3237 43.3504 53.6562 44.1875 53.6562H69.4374V66.2812C69.4369 66.9059 69.6218 67.5166 69.9686 68.0361C70.3153 68.5556 70.8085 68.9605 71.3855 69.1996C71.9625 69.4387 72.5975 69.5012 73.2101 69.3792C73.8227 69.2572 74.3853 68.9562 74.8267 68.5143L90.608 52.733C90.9014 52.4399 91.1342 52.0918 91.2931 51.7087C91.4519 51.3255 91.5336 50.9148 91.5336 50.5C91.5336 50.0852 91.4519 49.6745 91.2931 49.2913C91.1342 48.9082 90.9014 48.5601 90.608 48.267Z" fill="#4285F4"/>
</svg>
