<svg width="24" height="24" viewBox="0 0 24 24" fill="none" xmlns="http://www.w3.org/2000/svg">
<rect width="24" height="24" rx="5" fill="white"/>
<path d="M16.2 9.11619V8.69844C16.2 6.81744 13.3628 5.39844 9.6 5.39844C5.83725 5.39844 3 6.81744 3 8.69844V11.6984C3 13.2652 4.96875 14.5102 7.8 14.8829V15.2984C7.8 17.1794 10.6373 18.5984 14.4 18.5984C18.1628 18.5984 21 17.1794 21 15.2984V12.2984C21 10.7459 19.0935 9.49944 16.2 9.11619ZM6.6 13.4137C5.13075 13.0034 4.2 12.3277 4.2 11.6984V10.6432C4.812 11.0767 5.63175 11.4262 6.6 11.6609V13.4137ZM12.6 11.6609C13.5683 11.4262 14.388 11.0767 15 10.6432V11.6984C15 12.3277 14.0693 13.0034 12.6 13.4137V11.6609ZM11.4 17.0137C9.93075 16.6034 9 15.9277 9 15.2984V14.9857C9.19725 14.9932 9.39675 14.9984 9.6 14.9984C9.891 14.9984 10.1753 14.9887 10.4543 14.9722C10.7642 15.0831 11.0799 15.1773 11.4 15.2542V17.0137ZM11.4 13.6672C10.8041 13.7552 10.2024 13.7991 9.6 13.7984C8.99759 13.7991 8.39595 13.7552 7.8 13.6672V11.8829C8.39683 11.9607 8.99812 11.9993 9.6 11.9984C10.2019 11.9993 10.8032 11.9607 11.4 11.8829V13.6672ZM16.2 17.2672C15.0064 17.4422 13.7936 17.4422 12.6 17.2672V15.4784C13.1966 15.5586 13.798 15.5987 14.4 15.5984C15.0019 15.5993 15.6032 15.5607 16.2 15.4829V17.2672ZM19.8 15.2984C19.8 15.9277 18.8693 16.6034 17.4 17.0137V15.2609C18.3683 15.0262 19.188 14.6767 19.8 14.2432V15.2984Z" fill="#4285F4"/>
</svg>
