<svg width="24" height="24" viewBox="0 0 24 24" fill="none" xmlns="http://www.w3.org/2000/svg">
<path d="M20.8002 8.51918C20.7695 8.47273 20.7289 8.4337 20.6812 8.40491C20.6336 8.37612 20.5801 8.3583 20.5248 8.35273C20.4694 8.34717 20.4134 8.354 20.361 8.37274C20.3086 8.39147 20.261 8.42164 20.2217 8.46105L13.1511 15.5317C13.008 15.6589 12.8217 15.7265 12.6303 15.7207C12.439 15.715 12.257 15.6363 12.1218 15.5007C11.9866 15.3652 11.9084 15.183 11.9032 14.9916C11.8979 14.8003 11.966 14.6141 12.0936 14.4714L20.7842 5.78168C20.8539 5.712 20.9092 5.62927 20.9469 5.53823C20.9846 5.44718 21.004 5.3496 21.004 5.25105C21.004 5.15251 20.9846 5.05493 20.9469 4.96388C20.9092 4.87284 20.8539 4.79011 20.7842 4.72043C20.7145 4.65075 20.6318 4.59547 20.5408 4.55776C20.4497 4.52005 20.3521 4.50064 20.2536 4.50064C20.1551 4.50064 20.0575 4.52005 19.9664 4.55776C19.8754 4.59547 19.7927 4.65075 19.723 4.72043L18.4686 5.97574C16.6784 4.57762 14.4833 3.79742 12.2124 3.75209C9.94138 3.70677 7.71689 4.39876 5.87236 5.72433C4.02784 7.0499 2.66267 8.93763 1.98151 11.1045C1.30035 13.2714 1.3399 15.6007 2.09423 17.7432C2.19758 18.037 2.38931 18.2916 2.64311 18.472C2.8969 18.6525 3.20033 18.7499 3.51173 18.7511H20.487C20.7981 18.7512 21.1016 18.6547 21.3554 18.4748C21.6092 18.2949 21.8008 18.0406 21.9036 17.747C22.4382 16.227 22.6167 14.6046 22.4254 13.0047C22.2341 11.4049 21.6781 9.87026 20.8002 8.51918ZM5.38485 15.602C5.42438 15.7969 5.38485 15.9996 5.27497 16.1654C5.16509 16.3312 4.99385 16.4465 4.79892 16.4861C4.74956 16.4961 4.6993 16.5012 4.64892 16.5011C4.47605 16.5008 4.30857 16.4409 4.1748 16.3314C4.04104 16.2219 3.94921 16.0695 3.91485 15.9001C3.64666 14.5799 3.70563 13.2141 4.08662 11.9219C4.46761 10.6297 5.15905 9.45037 6.10059 8.48682C7.04213 7.52327 8.20517 6.80478 9.48822 6.39404C10.7713 5.98331 12.1353 5.8928 13.4614 6.13043C13.6572 6.16549 13.8311 6.27689 13.9447 6.44014C14.0584 6.60338 14.1026 6.80509 14.0675 7.0009C14.0325 7.1967 13.921 7.37056 13.7578 7.48422C13.5946 7.59789 13.3928 7.64205 13.197 7.60699C12.1119 7.41272 10.9957 7.48692 9.94582 7.82312C8.89594 8.15931 7.94426 8.74729 7.17382 9.53577C6.40337 10.3242 5.83756 11.2893 5.52573 12.3466C5.2139 13.404 5.16554 14.5216 5.38485 15.602Z" fill="#4285F4"/>
</svg>
